<?xml version="1.0" encoding="utf-8"?>
<!-- Svg Vector Icons : http://www.onlinewebfonts.com/icon -->
<!DOCTYPE svg PUBLIC "-//W3C//DTD SVG 1.1//EN" "http://www.w3.org/Graphics/SVG/1.1/DTD/svg11.dtd">
<svg version="1.1" xmlns="http://www.w3.org/2000/svg" xmlns:xlink="http://www.w3.org/1999/xlink" x="0px" y="0px" viewBox="0 0 1000 1000" enable-background="new 0 0 1000 1000" xml:space="preserve">
<metadata> Svg Vector Icons : http://www.onlinewebfonts.com/icon </metadata>
<g><g transform="translate(0.000000,511.000000) scale(0.100000,-0.100000)"><path d="M3890.6,4887.3c-50.8-17.7-150.1-66.2-220.8-108.2c-377.5-220.8-3221-2163.5-3355.7-2293.8C161.8,2339.6,102.2,2205,100,2008.5c0-183.2,41.9-284.8,170-430.5C404.7,1423.4,3535.2-704.8,3811.2-832.8c145.7-66.2,309.1-86.1,412.8-53c46.4,15.4,119.2,70.6,167.8,125.8c145.7,167.8,156.7,225.2,156.7,885.3v580.6l61.8-13.2c236.2-57.4,487.9-125.8,666.7-185.4c889.7-298,1825.8-838.9,2269.5-1313.6c600.5-642.4,1084-1911.9,1304.8-3415.3c48.6-328.9,59.6-366.5,147.9-434.9c315.7-247.2,693.2,512.2,861,1730.8c28.7,207.5,39.8,426.1,39.8,794.8c0,600.5-37.5,916.2-165.6,1421.8C9496,226.9,9083.2,924.5,8332.5,1657.5c-997.9,971.4-2168,1527.7-3486,1660.2l-287,28.7l-11,593.9c-8.8,501.2-17.7,609.3-48.6,680C4378.5,4887.3,4162.2,4982.3,3890.6,4887.3z"/></g></g>
</svg>