<?xml version="1.0" encoding="iso-8859-1"?>
<!-- Generator: Adobe Illustrator 19.0.0, SVG Export Plug-In . SVG Version: 6.00 Build 0)  -->
<svg version="1.1" id="Layer_1" xmlns="http://www.w3.org/2000/svg" xmlns:xlink="http://www.w3.org/1999/xlink" x="0px" y="0px"
	 viewBox="0 0 512.001 512.001" style="enable-background:new 0 0 512.001 512.001;" xml:space="preserve">
<g>
	<g>
		<g>
			<path d="M500.04,337.299l-78.937-45.574c-15.933-9.199-35.929,2.313-35.929,20.743v27.074h-35.651
				c-32.535,0-61.903-18.017-76.647-47.018l-45.657-89.815c-21.089-41.487-63.101-67.259-109.641-67.259H18.507
				C8.286,135.45,0,143.736,0,153.956s8.286,18.507,18.507,18.507h99.072c32.535,0,61.903,18.016,76.647,47.018l18.563,36.518
				c-17.939,35.288-35.005,83.536-95.21,83.536c-10.221,0-18.507,8.286-18.507,18.507c0,10.221,8.286,18.507,18.507,18.507
				c46.54,0,88.552-25.772,109.641-67.259l6.329-12.453l6.333,12.459c21.089,41.487,63.101,67.258,109.641,67.258h35.651v27.062
				c0,18.404,19.972,29.957,35.929,20.743l78.937-45.574C515.973,369.587,516,346.514,500.04,337.299z"/>
			<path d="M53.496,339.537h-34.99C8.286,339.537,0,347.823,0,358.044s8.286,18.507,18.507,18.507h34.99
				c10.221,0,18.507-8.286,18.507-18.507S63.718,339.537,53.496,339.537z"/>
			<path d="M421.103,220.275l78.937-45.573c15.935-9.199,15.96-32.273,0-41.488L421.103,87.64
				c-15.938-9.203-35.929,2.318-35.929,20.743v91.149C385.173,217.931,405.143,229.49,421.103,220.275z"/>
			<path d="M360.498,172.458v-37.013c-46.421,0-84.991,13.09-112.563,53.656c1.513,2.848-1.476-2.996,20.215,39.673
				C294.915,176.119,326.725,172.458,360.498,172.458z"/>
		</g>
	</g>
</g>
<g>
</g>
<g>
</g>
<g>
</g>
<g>
</g>
<g>
</g>
<g>
</g>
<g>
</g>
<g>
</g>
<g>
</g>
<g>
</g>
<g>
</g>
<g>
</g>
<g>
</g>
<g>
</g>
<g>
</g>
</svg>
